<svg xmlns="http://www.w3.org/2000/svg" width="513.83" height="457.32" overflow="visible"><style>.st1{fill:#b3b9c7}.st2{fill:#232244}.st3{fill:#e33}</style><path fill="none" d="M109.42 173.9l-50.77 50.78"/><path class="st1" d="M114.26 178.09L62.85 229.5c-1.28-1.7-2.69-3.33-4.19-4.83-1.5-1.5-3.14-2.95-4.87-4.19l51.45-51.45c1.25 1.73 2.69 3.36 4.19 4.87a44.77 44.77 0 004.83 4.19zM344.76 105.23c-3.43 2.56-6.5 5.63-9.03 9.06l-51.45-51.45c3.43-2.53 6.5-5.6 9.06-9.03l51.42 51.42zM460.01 220.48c-3.43 2.56-6.5 5.63-9.03 9.06l-51.45-51.45c3.43-2.53 6.5-5.6 9.06-9.03l51.42 51.42zM52.82 256.91c0 14.57-11.85 26.41-26.41 26.41S0 271.48 0 256.91s11.85-26.41 26.41-26.41c4.96 0 9.6 1.38 13.57 3.78 1.86 1.09 3.59 2.43 5.09 3.97 1.5 1.5 2.85 3.2 3.97 5.06a26.15 26.15 0 013.78 13.6zM513.83 256.91c0 14.57-11.85 26.41-26.41 26.41S461 271.48 461 256.91c0-4.96 1.38-9.6 3.78-13.57 2.21-3.71 5.31-6.82 9.03-9.06 3.97-2.4 8.64-3.78 13.61-3.78 14.56 0 26.41 11.85 26.41 26.41zM398.58 141.66c0 4.96-1.38 9.64-3.78 13.61a26.364 26.364 0 01-9.06 9.03c-3.97 2.4-8.61 3.78-13.57 3.78-14.57 0-26.41-11.85-26.41-26.41 0-4.96 1.38-9.6 3.78-13.57 2.21-3.71 5.31-6.82 9.03-9.06 3.97-2.4 8.64-3.78 13.61-3.78 14.55-.01 26.4 11.84 26.4 26.4z"/><path class="st2" d="M27.43 455.57H0V339.04h51.19c15.02 0 23.24 2.09 30.22 7.86 7.51 6.12 12.23 16.6 12.23 27.08 0 8.38-3.14 16.77-8.73 22.71-2.8 2.97-5.42 4.72-11.36 7.51l21.49 51.37H64.82L47 409.44H27.43v46.13zm0-66.04H44.2c9.08 0 11.18-.35 14.5-2.45 4.02-2.44 6.81-7.69 6.81-12.75 0-4.54-2.09-8.91-5.42-11.53-3.49-2.62-5.59-2.97-16.6-2.97H27.43v29.7zM193.76 354.24c8.56 11.71 13.28 27.08 13.28 43.85 0 15.2-4.89 31.45-12.93 42.28-8.21 10.83-21.49 16.95-37.21 16.95-15.2 0-27.43-5.77-35.82-16.77-8.73-11.53-13.45-26.73-13.45-43.68 0-16.6 4.72-31.8 13.1-42.63 8.56-11.01 21.31-16.95 37.04-16.95s27.6 5.59 35.99 16.95zm-52.59 15.37c-3.15 6.64-5.07 16.77-5.07 27.6 0 25.33 7.16 37.91 21.66 37.91 13.98 0 20.79-12.41 20.79-37.74 0-25.33-6.81-37.91-20.96-37.91-7.68.01-13.1 3.33-16.42 10.14zM308.89 354.24c8.56 11.71 13.28 27.08 13.28 43.85 0 15.2-4.89 31.45-12.93 42.28-8.21 10.83-21.49 16.95-37.21 16.95-15.2 0-27.43-5.77-35.82-16.77-8.73-11.53-13.45-26.73-13.45-43.68 0-16.6 4.72-31.8 13.1-42.63 8.56-11.01 21.31-16.95 37.04-16.95s27.61 5.59 35.99 16.95zm-52.58 15.37c-3.15 6.64-5.07 16.77-5.07 27.6 0 25.33 7.16 37.91 21.66 37.91 13.98 0 20.79-12.41 20.79-37.74 0-25.33-6.81-37.91-20.96-37.91-7.69.01-13.11 3.33-16.42 10.14zM413.02 362.1H384.2v93.47h-27.6V362.1h-29v-23.06h85.43v23.06zM487.62 372.41c-4.2-10.48-9.26-13.8-20.27-13.8-10.13 0-15.9 3.85-15.9 10.31 0 6.81 4.19 9.78 16.77 12.23 17.47 3.67 24.64 5.94 30.58 9.96 9.78 6.64 15.02 16.42 15.02 27.6 0 12.23-6.64 24.28-17.12 31.1-7.51 4.89-18.52 7.51-30.75 7.51-13.63 0-24.64-3.32-33.37-9.96-7.34-5.77-10.66-11.01-13.98-22.36l25.16-5.77c3.32 11.18 10.66 16.25 23.58 16.25 11.53 0 18.7-4.72 18.7-12.23 0-6.99-4.72-10.13-20.27-13.28-12.93-2.62-20.44-5.07-26.91-9.08-9.08-5.42-14.15-15.03-14.15-26.56 0-10.83 4.02-19.92 11.88-26.91 7.86-6.99 17.47-10.13 30.57-10.13 12.58 0 22.71 2.97 30.58 8.91 6.12 4.54 9.26 9.08 12.93 18.52l-23.05 7.69z"/><path class="st3" d="M173.9 109.42c-1.5-1.5-3.14-2.95-4.87-4.19l51.45-51.45c1.25 1.73 2.69 3.36 4.19 4.87 1.5 1.5 3.14 2.91 4.83 4.19l-51.41 51.41a46.777 46.777 0 00-4.19-4.83zM178.09 169.07l51.41 51.41c-3.43 2.56-6.5 5.63-9.03 9.06l-51.45-51.45c3.44-2.52 6.51-5.6 9.07-9.02z"/><g><path class="st3" d="M283.33 26.41c0 4.96-1.38 9.64-3.78 13.61a26.364 26.364 0 01-9.06 9.03c-3.97 2.4-8.61 3.78-13.57 3.78-4.96 0-9.64-1.38-13.61-3.78a26.467 26.467 0 01-5.06-3.97c-1.54-1.5-2.88-3.23-3.97-5.09-2.4-3.97-3.78-8.61-3.78-13.57C230.5 11.85 242.35 0 256.91 0c14.57 0 26.42 11.85 26.42 26.41z"/></g><g><path class="st3" d="M164.3 155.24v.03a26.364 26.364 0 01-9.06 9.03c-3.97 2.4-8.61 3.78-13.57 3.78s-9.64-1.38-13.61-3.78a26.467 26.467 0 01-5.06-3.97c-1.54-1.5-2.88-3.23-3.97-5.09-2.4-3.97-3.78-8.61-3.78-13.57 0-14.57 11.85-26.41 26.41-26.41 4.96 0 9.6 1.38 13.57 3.78 1.86 1.09 3.59 2.43 5.09 3.97 1.5 1.5 2.85 3.2 3.97 5.06v.03c2.4 3.97 3.78 8.61 3.78 13.57 0 4.96-1.37 9.6-3.77 13.57zM164.3 155.27z"/><path d="M164.3 155.27z" fill="#fff"/></g><g><path class="st3" d="M283.33 256.91c0 14.57-11.85 26.41-26.41 26.41-14.57 0-26.41-11.85-26.41-26.41 0-4.96 1.38-9.6 3.78-13.57 2.21-3.71 5.31-6.82 9.03-9.06 3.97-2.4 8.64-3.78 13.61-3.78 14.55 0 26.4 11.85 26.4 26.41z"/></g></svg>